<mxfile host="app.diagrams.net" agent="Mozilla/5.0 (Windows NT 10.0; Win64; x64) AppleWebKit/537.36 (KHTML, like Gecko) Chrome/134.0.0.0 Safari/537.36" version="26.2.9">
  <diagram id="R2lEEEUBdFMjLlhIrx00" name="Page-1">
    <mxGraphModel dx="1483" dy="1502" grid="1" gridSize="10" guides="1" tooltips="1" connect="1" arrows="1" fold="1" page="1" pageScale="1" pageWidth="850" pageHeight="1100" math="0" shadow="0" extFonts="Permanent Marker^https://fonts.googleapis.com/css?family=Permanent+Marker">
      <root>
        <mxCell id="0" />
        <mxCell id="1" parent="0" />
        <mxCell id="0oao1zLVQg-sBAG5AtIF-471" style="rounded=0;orthogonalLoop=1;jettySize=auto;html=1;exitX=0;exitY=0.5;exitDx=0;exitDy=0;entryX=1;entryY=0.5;entryDx=0;entryDy=0;endArrow=none;startFill=0;" parent="1" source="0oao1zLVQg-sBAG5AtIF-461" target="0oao1zLVQg-sBAG5AtIF-469" edge="1">
          <mxGeometry relative="1" as="geometry" />
        </mxCell>
        <mxCell id="0oao1zLVQg-sBAG5AtIF-475" style="rounded=0;orthogonalLoop=1;jettySize=auto;html=1;exitX=0;exitY=0.5;exitDx=0;exitDy=0;entryX=1;entryY=0.5;entryDx=0;entryDy=0;endArrow=none;startFill=0;" parent="1" source="0oao1zLVQg-sBAG5AtIF-461" target="0oao1zLVQg-sBAG5AtIF-474" edge="1">
          <mxGeometry relative="1" as="geometry" />
        </mxCell>
        <mxCell id="0oao1zLVQg-sBAG5AtIF-461" value="" style="rounded=0;whiteSpace=wrap;html=1;" parent="1" vertex="1">
          <mxGeometry x="-24.5" y="455.75" width="89" height="42.25" as="geometry" />
        </mxCell>
        <mxCell id="0oao1zLVQg-sBAG5AtIF-434" style="rounded=0;orthogonalLoop=1;jettySize=auto;html=1;exitX=0.5;exitY=0;exitDx=0;exitDy=0;entryX=0.5;entryY=1;entryDx=0;entryDy=0;endArrow=none;startFill=0;" parent="1" source="0oao1zLVQg-sBAG5AtIF-431" target="0oao1zLVQg-sBAG5AtIF-341" edge="1">
          <mxGeometry relative="1" as="geometry" />
        </mxCell>
        <mxCell id="0oao1zLVQg-sBAG5AtIF-431" value="&lt;b&gt;Discount&lt;/b&gt;" style="ellipse;whiteSpace=wrap;html=1;" parent="1" vertex="1">
          <mxGeometry x="-371" y="712.25" width="80" height="30" as="geometry" />
        </mxCell>
        <mxCell id="0oao1zLVQg-sBAG5AtIF-350" value="" style="rhombus;whiteSpace=wrap;html=1;" parent="1" vertex="1">
          <mxGeometry x="-27.5" y="229" width="95" height="100" as="geometry" />
        </mxCell>
        <mxCell id="0oao1zLVQg-sBAG5AtIF-341" value="" style="rounded=0;whiteSpace=wrap;html=1;" parent="1" vertex="1">
          <mxGeometry x="-375.5" y="641.12" width="89" height="42.25" as="geometry" />
        </mxCell>
        <mxCell id="0oao1zLVQg-sBAG5AtIF-307" value="(1,1)" style="text;html=1;align=center;verticalAlign=middle;resizable=0;points=[];autosize=1;strokeColor=none;fillColor=none;" parent="1" vertex="1">
          <mxGeometry x="302" y="517.5" width="50" height="30" as="geometry" />
        </mxCell>
        <mxCell id="0oao1zLVQg-sBAG5AtIF-242" value="" style="ellipse;whiteSpace=wrap;html=1;" parent="1" vertex="1">
          <mxGeometry x="19.5" y="927.25" width="90" height="40" as="geometry" />
        </mxCell>
        <mxCell id="0oao1zLVQg-sBAG5AtIF-68" value="" style="edgeStyle=orthogonalEdgeStyle;rounded=0;orthogonalLoop=1;jettySize=auto;html=1;endArrow=none;startFill=0;" parent="1" source="0oao1zLVQg-sBAG5AtIF-47" target="0oao1zLVQg-sBAG5AtIF-55" edge="1">
          <mxGeometry relative="1" as="geometry" />
        </mxCell>
        <mxCell id="0oao1zLVQg-sBAG5AtIF-283" style="edgeStyle=orthogonalEdgeStyle;rounded=0;orthogonalLoop=1;jettySize=auto;html=1;exitX=0.5;exitY=1;exitDx=0;exitDy=0;endArrow=none;startFill=0;entryX=0.5;entryY=1;entryDx=0;entryDy=0;" parent="1" source="0oao1zLVQg-sBAG5AtIF-284" target="0oao1zLVQg-sBAG5AtIF-259" edge="1">
          <mxGeometry relative="1" as="geometry">
            <mxPoint x="310" y="762.25" as="targetPoint" />
            <Array as="points">
              <mxPoint x="-480" y="1070" />
              <mxPoint x="310" y="1070" />
            </Array>
          </mxGeometry>
        </mxCell>
        <mxCell id="0oao1zLVQg-sBAG5AtIF-47" value="CRED_CARD" style="rounded=0;whiteSpace=wrap;html=1;" parent="1" vertex="1">
          <mxGeometry x="-20" y="94.5" width="80" height="35" as="geometry" />
        </mxCell>
        <mxCell id="0oao1zLVQg-sBAG5AtIF-50" value="" style="group" parent="1" vertex="1" connectable="0">
          <mxGeometry x="-65.5" y="-28" width="215" height="100" as="geometry" />
        </mxCell>
        <mxCell id="0oao1zLVQg-sBAG5AtIF-51" value="First_name" style="ellipse;whiteSpace=wrap;html=1;" parent="0oao1zLVQg-sBAG5AtIF-50" vertex="1">
          <mxGeometry width="80" height="30" as="geometry" />
        </mxCell>
        <mxCell id="0oao1zLVQg-sBAG5AtIF-52" value="Surname" style="ellipse;whiteSpace=wrap;html=1;" parent="0oao1zLVQg-sBAG5AtIF-50" vertex="1">
          <mxGeometry x="90" width="80" height="30" as="geometry" />
        </mxCell>
        <mxCell id="0oao1zLVQg-sBAG5AtIF-53" value="" style="group" parent="0oao1zLVQg-sBAG5AtIF-50" vertex="1" connectable="0">
          <mxGeometry x="40" y="62" width="90" height="40" as="geometry" />
        </mxCell>
        <mxCell id="0oao1zLVQg-sBAG5AtIF-55" value="Owner_name" style="ellipse;whiteSpace=wrap;html=1;perimeterSpacing=0;movable=1;resizable=1;rotatable=1;deletable=1;editable=1;locked=0;connectable=1;" parent="0oao1zLVQg-sBAG5AtIF-53" vertex="1">
          <mxGeometry x="5" y="5" width="80" height="30" as="geometry" />
        </mxCell>
        <mxCell id="0oao1zLVQg-sBAG5AtIF-56" value="" style="rounded=0;orthogonalLoop=1;jettySize=auto;html=1;endArrow=none;startFill=0;entryX=0.5;entryY=1;entryDx=0;entryDy=0;exitX=0.5;exitY=0;exitDx=0;exitDy=0;" parent="0oao1zLVQg-sBAG5AtIF-50" source="0oao1zLVQg-sBAG5AtIF-55" target="0oao1zLVQg-sBAG5AtIF-52" edge="1">
          <mxGeometry relative="1" as="geometry">
            <mxPoint x="130" y="31.999999999999773" as="targetPoint" />
          </mxGeometry>
        </mxCell>
        <mxCell id="0oao1zLVQg-sBAG5AtIF-57" value="" style="rounded=0;orthogonalLoop=1;jettySize=auto;html=1;endArrow=none;startFill=0;exitX=0.5;exitY=0;exitDx=0;exitDy=0;entryX=0.5;entryY=1;entryDx=0;entryDy=0;" parent="0oao1zLVQg-sBAG5AtIF-50" source="0oao1zLVQg-sBAG5AtIF-55" target="0oao1zLVQg-sBAG5AtIF-51" edge="1">
          <mxGeometry relative="1" as="geometry" />
        </mxCell>
        <mxCell id="0oao1zLVQg-sBAG5AtIF-75" value="Billing_address" style="ellipse;whiteSpace=wrap;html=1;" parent="0oao1zLVQg-sBAG5AtIF-50" vertex="1">
          <mxGeometry x="135" y="67" width="80" height="30" as="geometry" />
        </mxCell>
        <mxCell id="0oao1zLVQg-sBAG5AtIF-48" value="Security#" style="ellipse;whiteSpace=wrap;html=1;" parent="1" vertex="1">
          <mxGeometry x="-160" y="77.75" width="80" height="30" as="geometry" />
        </mxCell>
        <mxCell id="0oao1zLVQg-sBAG5AtIF-49" value="&lt;u&gt;&lt;b&gt;Card#&lt;/b&gt;&lt;/u&gt;" style="ellipse;whiteSpace=wrap;html=1;" parent="1" vertex="1">
          <mxGeometry x="-160" y="36.25" width="80" height="30" as="geometry" />
        </mxCell>
        <mxCell id="0oao1zLVQg-sBAG5AtIF-61" value="Card_type" style="ellipse;whiteSpace=wrap;html=1;" parent="1" vertex="1">
          <mxGeometry x="-160" y="117.75" width="80" height="30" as="geometry" />
        </mxCell>
        <mxCell id="0oao1zLVQg-sBAG5AtIF-62" value="Expiry_date" style="ellipse;whiteSpace=wrap;html=1;" parent="1" vertex="1">
          <mxGeometry x="-160" y="157.75" width="80" height="30" as="geometry" />
        </mxCell>
        <mxCell id="0oao1zLVQg-sBAG5AtIF-64" style="rounded=0;orthogonalLoop=1;jettySize=auto;html=1;exitX=0;exitY=0.5;exitDx=0;exitDy=0;entryX=1;entryY=0.5;entryDx=0;entryDy=0;endArrow=none;startFill=0;" parent="1" source="0oao1zLVQg-sBAG5AtIF-47" target="0oao1zLVQg-sBAG5AtIF-48" edge="1">
          <mxGeometry relative="1" as="geometry" />
        </mxCell>
        <mxCell id="0oao1zLVQg-sBAG5AtIF-63" style="rounded=0;orthogonalLoop=1;jettySize=auto;html=1;exitX=0;exitY=0.5;exitDx=0;exitDy=0;entryX=1;entryY=0.5;entryDx=0;entryDy=0;endArrow=none;startFill=0;" parent="1" source="0oao1zLVQg-sBAG5AtIF-47" target="0oao1zLVQg-sBAG5AtIF-49" edge="1">
          <mxGeometry relative="1" as="geometry" />
        </mxCell>
        <mxCell id="0oao1zLVQg-sBAG5AtIF-65" style="rounded=0;orthogonalLoop=1;jettySize=auto;html=1;exitX=0;exitY=0.5;exitDx=0;exitDy=0;entryX=1;entryY=0.5;entryDx=0;entryDy=0;endArrow=none;startFill=0;" parent="1" source="0oao1zLVQg-sBAG5AtIF-47" target="0oao1zLVQg-sBAG5AtIF-61" edge="1">
          <mxGeometry relative="1" as="geometry" />
        </mxCell>
        <mxCell id="0oao1zLVQg-sBAG5AtIF-66" style="rounded=0;orthogonalLoop=1;jettySize=auto;html=1;exitX=0;exitY=0.5;exitDx=0;exitDy=0;entryX=1;entryY=0.5;entryDx=0;entryDy=0;endArrow=none;startFill=0;" parent="1" source="0oao1zLVQg-sBAG5AtIF-47" target="0oao1zLVQg-sBAG5AtIF-62" edge="1">
          <mxGeometry relative="1" as="geometry" />
        </mxCell>
        <mxCell id="0oao1zLVQg-sBAG5AtIF-390" style="rounded=0;orthogonalLoop=1;jettySize=auto;html=1;exitX=0.5;exitY=0;exitDx=0;exitDy=0;entryX=0.5;entryY=1;entryDx=0;entryDy=0;endArrow=none;startFill=0;" parent="1" source="0oao1zLVQg-sBAG5AtIF-86" target="0oao1zLVQg-sBAG5AtIF-377" edge="1">
          <mxGeometry relative="1" as="geometry" />
        </mxCell>
        <mxCell id="0oao1zLVQg-sBAG5AtIF-86" value="Zip_code" style="ellipse;whiteSpace=wrap;html=1;" parent="1" vertex="1">
          <mxGeometry x="643" y="178" width="80" height="30" as="geometry" />
        </mxCell>
        <mxCell id="0oao1zLVQg-sBAG5AtIF-389" style="rounded=0;orthogonalLoop=1;jettySize=auto;html=1;exitX=0.5;exitY=0;exitDx=0;exitDy=0;entryX=0.5;entryY=1;entryDx=0;entryDy=0;endArrow=none;startFill=0;" parent="1" source="0oao1zLVQg-sBAG5AtIF-87" target="0oao1zLVQg-sBAG5AtIF-377" edge="1">
          <mxGeometry relative="1" as="geometry" />
        </mxCell>
        <mxCell id="0oao1zLVQg-sBAG5AtIF-87" value="Street_name" style="ellipse;whiteSpace=wrap;html=1;" parent="1" vertex="1">
          <mxGeometry x="724.5" y="178" width="80" height="30" as="geometry" />
        </mxCell>
        <mxCell id="0oao1zLVQg-sBAG5AtIF-388" style="rounded=0;orthogonalLoop=1;jettySize=auto;html=1;exitX=0.5;exitY=0;exitDx=0;exitDy=0;entryX=0.5;entryY=1;entryDx=0;entryDy=0;endArrow=none;startFill=0;" parent="1" source="0oao1zLVQg-sBAG5AtIF-88" target="0oao1zLVQg-sBAG5AtIF-377" edge="1">
          <mxGeometry relative="1" as="geometry" />
        </mxCell>
        <mxCell id="0oao1zLVQg-sBAG5AtIF-88" value="Street#" style="ellipse;whiteSpace=wrap;html=1;" parent="1" vertex="1">
          <mxGeometry x="804.5" y="178" width="80" height="30" as="geometry" />
        </mxCell>
        <mxCell id="0oao1zLVQg-sBAG5AtIF-387" style="rounded=0;orthogonalLoop=1;jettySize=auto;html=1;exitX=0;exitY=0.5;exitDx=0;exitDy=0;entryX=1;entryY=0.5;entryDx=0;entryDy=0;endArrow=none;startFill=0;" parent="1" source="0oao1zLVQg-sBAG5AtIF-89" target="0oao1zLVQg-sBAG5AtIF-377" edge="1">
          <mxGeometry relative="1" as="geometry" />
        </mxCell>
        <mxCell id="0oao1zLVQg-sBAG5AtIF-89" value="City" style="ellipse;whiteSpace=wrap;html=1;" parent="1" vertex="1">
          <mxGeometry x="860" y="137.5" width="80" height="30" as="geometry" />
        </mxCell>
        <mxCell id="0oao1zLVQg-sBAG5AtIF-386" style="rounded=0;orthogonalLoop=1;jettySize=auto;html=1;exitX=0;exitY=0.5;exitDx=0;exitDy=0;entryX=1;entryY=0.5;entryDx=0;entryDy=0;endArrow=none;startFill=0;" parent="1" source="0oao1zLVQg-sBAG5AtIF-90" target="0oao1zLVQg-sBAG5AtIF-377" edge="1">
          <mxGeometry relative="1" as="geometry" />
        </mxCell>
        <mxCell id="0oao1zLVQg-sBAG5AtIF-90" value="State" style="ellipse;whiteSpace=wrap;html=1;" parent="1" vertex="1">
          <mxGeometry x="860" y="97.5" width="80" height="30" as="geometry" />
        </mxCell>
        <mxCell id="0oao1zLVQg-sBAG5AtIF-384" style="rounded=0;orthogonalLoop=1;jettySize=auto;html=1;exitX=0;exitY=0.5;exitDx=0;exitDy=0;entryX=1;entryY=0.5;entryDx=0;entryDy=0;endArrow=none;startFill=0;" parent="1" source="0oao1zLVQg-sBAG5AtIF-91" target="0oao1zLVQg-sBAG5AtIF-377" edge="1">
          <mxGeometry relative="1" as="geometry" />
        </mxCell>
        <mxCell id="0oao1zLVQg-sBAG5AtIF-91" value="Country" style="ellipse;whiteSpace=wrap;html=1;" parent="1" vertex="1">
          <mxGeometry x="860" y="57.5" width="80" height="30" as="geometry" />
        </mxCell>
        <mxCell id="0oao1zLVQg-sBAG5AtIF-120" style="edgeStyle=orthogonalEdgeStyle;rounded=0;orthogonalLoop=1;jettySize=auto;html=1;exitX=0.5;exitY=0;exitDx=0;exitDy=0;entryX=0.5;entryY=1;entryDx=0;entryDy=0;endArrow=none;startFill=0;shape=link;" parent="1" source="0oao1zLVQg-sBAG5AtIF-108" target="0oao1zLVQg-sBAG5AtIF-1" edge="1">
          <mxGeometry relative="1" as="geometry" />
        </mxCell>
        <mxCell id="0oao1zLVQg-sBAG5AtIF-121" style="rounded=0;orthogonalLoop=1;jettySize=auto;html=1;exitX=0;exitY=0.5;exitDx=0;exitDy=0;entryX=0.5;entryY=0;entryDx=0;entryDy=0;endArrow=none;startFill=0;" parent="1" source="0oao1zLVQg-sBAG5AtIF-108" target="0oao1zLVQg-sBAG5AtIF-111" edge="1">
          <mxGeometry relative="1" as="geometry" />
        </mxCell>
        <mxCell id="0oao1zLVQg-sBAG5AtIF-122" style="rounded=0;orthogonalLoop=1;jettySize=auto;html=1;exitX=0.5;exitY=1;exitDx=0;exitDy=0;entryX=0.5;entryY=0;entryDx=0;entryDy=0;endArrow=none;startFill=0;" parent="1" source="0oao1zLVQg-sBAG5AtIF-108" target="0oao1zLVQg-sBAG5AtIF-113" edge="1">
          <mxGeometry relative="1" as="geometry" />
        </mxCell>
        <mxCell id="0oao1zLVQg-sBAG5AtIF-123" style="rounded=0;orthogonalLoop=1;jettySize=auto;html=1;exitX=0.5;exitY=1;exitDx=0;exitDy=0;entryX=0.5;entryY=0;entryDx=0;entryDy=0;endArrow=none;startFill=0;" parent="1" source="0oao1zLVQg-sBAG5AtIF-108" target="0oao1zLVQg-sBAG5AtIF-112" edge="1">
          <mxGeometry relative="1" as="geometry" />
        </mxCell>
        <mxCell id="0oao1zLVQg-sBAG5AtIF-124" style="rounded=0;orthogonalLoop=1;jettySize=auto;html=1;exitX=1;exitY=0.5;exitDx=0;exitDy=0;entryX=0.5;entryY=0;entryDx=0;entryDy=0;endArrow=none;startFill=0;" parent="1" source="0oao1zLVQg-sBAG5AtIF-108" target="0oao1zLVQg-sBAG5AtIF-114" edge="1">
          <mxGeometry relative="1" as="geometry" />
        </mxCell>
        <mxCell id="0oao1zLVQg-sBAG5AtIF-125" value="U" style="edgeLabel;align=center;verticalAlign=middle;resizable=0;points=[];rotation=-60;fontSize=19;labelBackgroundColor=none;" parent="0oao1zLVQg-sBAG5AtIF-124" vertex="1" connectable="0">
          <mxGeometry x="0.0036" y="1" relative="1" as="geometry">
            <mxPoint x="-1" y="2" as="offset" />
          </mxGeometry>
        </mxCell>
        <mxCell id="0oao1zLVQg-sBAG5AtIF-108" value="&lt;b&gt;d&lt;/b&gt;" style="ellipse;whiteSpace=wrap;html=1;aspect=fixed;" parent="1" vertex="1">
          <mxGeometry x="310" y="166.5" width="50" height="50" as="geometry" />
        </mxCell>
        <mxCell id="0oao1zLVQg-sBAG5AtIF-111" value="REGULAR" style="rounded=0;whiteSpace=wrap;html=1;" parent="1" vertex="1">
          <mxGeometry x="160" y="242.5" width="80" height="35" as="geometry" />
        </mxCell>
        <mxCell id="0oao1zLVQg-sBAG5AtIF-132" value="" style="rounded=0;orthogonalLoop=1;jettySize=auto;html=1;endArrow=none;startFill=0;exitX=0.5;exitY=1;exitDx=0;exitDy=0;entryX=0.5;entryY=0;entryDx=0;entryDy=0;" parent="1" source="0oao1zLVQg-sBAG5AtIF-112" target="0oao1zLVQg-sBAG5AtIF-118" edge="1">
          <mxGeometry relative="1" as="geometry" />
        </mxCell>
        <mxCell id="0oao1zLVQg-sBAG5AtIF-141" style="rounded=0;orthogonalLoop=1;jettySize=auto;html=1;exitX=0.5;exitY=1;exitDx=0;exitDy=0;entryX=0.5;entryY=0;entryDx=0;entryDy=0;endArrow=none;startFill=0;" parent="1" source="0oao1zLVQg-sBAG5AtIF-112" target="0oao1zLVQg-sBAG5AtIF-138" edge="1">
          <mxGeometry relative="1" as="geometry" />
        </mxCell>
        <mxCell id="0oao1zLVQg-sBAG5AtIF-112" value="GOLD" style="rounded=0;whiteSpace=wrap;html=1;" parent="1" vertex="1">
          <mxGeometry x="340" y="266.5" width="80" height="35" as="geometry" />
        </mxCell>
        <mxCell id="0oao1zLVQg-sBAG5AtIF-133" value="" style="edgeStyle=orthogonalEdgeStyle;rounded=0;orthogonalLoop=1;jettySize=auto;html=1;endArrow=none;startFill=0;" parent="1" source="0oao1zLVQg-sBAG5AtIF-113" target="0oao1zLVQg-sBAG5AtIF-115" edge="1">
          <mxGeometry relative="1" as="geometry" />
        </mxCell>
        <mxCell id="0oao1zLVQg-sBAG5AtIF-113" value="SILVER" style="rounded=0;whiteSpace=wrap;html=1;" parent="1" vertex="1">
          <mxGeometry x="250" y="266.5" width="80" height="35" as="geometry" />
        </mxCell>
        <mxCell id="0oao1zLVQg-sBAG5AtIF-131" value="" style="edgeStyle=orthogonalEdgeStyle;rounded=0;orthogonalLoop=1;jettySize=auto;html=1;endArrow=none;startFill=0;" parent="1" source="0oao1zLVQg-sBAG5AtIF-114" target="0oao1zLVQg-sBAG5AtIF-119" edge="1">
          <mxGeometry relative="1" as="geometry" />
        </mxCell>
        <mxCell id="0oao1zLVQg-sBAG5AtIF-114" value="PLATINUM" style="rounded=0;whiteSpace=wrap;html=1;" parent="1" vertex="1">
          <mxGeometry x="430" y="242.5" width="80" height="35" as="geometry" />
        </mxCell>
        <mxCell id="0oao1zLVQg-sBAG5AtIF-115" value="Credit_line" style="ellipse;whiteSpace=wrap;html=1;" parent="1" vertex="1">
          <mxGeometry x="250" y="328.5" width="80" height="30" as="geometry" />
        </mxCell>
        <mxCell id="0oao1zLVQg-sBAG5AtIF-118" value="Credit_line" style="ellipse;whiteSpace=wrap;html=1;" parent="1" vertex="1">
          <mxGeometry x="298" y="370.75" width="80" height="30" as="geometry" />
        </mxCell>
        <mxCell id="0oao1zLVQg-sBAG5AtIF-119" value="Credit_line" style="ellipse;whiteSpace=wrap;html=1;" parent="1" vertex="1">
          <mxGeometry x="430" y="320.75" width="80" height="30" as="geometry" />
        </mxCell>
        <mxCell id="0oao1zLVQg-sBAG5AtIF-135" value="U" style="edgeLabel;align=center;verticalAlign=middle;resizable=0;points=[];rotation=60;fontSize=19;labelBackgroundColor=none;" parent="1" vertex="1" connectable="0">
          <mxGeometry x="261.0003361789509" y="214.25044967942142" as="geometry" />
        </mxCell>
        <mxCell id="0oao1zLVQg-sBAG5AtIF-136" value="U" style="edgeLabel;align=center;verticalAlign=middle;resizable=0;points=[];rotation=45;fontSize=19;labelBackgroundColor=none;" parent="1" vertex="1" connectable="0">
          <mxGeometry x="269.0003361789509" y="239.50044967942142" as="geometry">
            <mxPoint x="32.624355652982146" y="-28.507041555161983" as="offset" />
          </mxGeometry>
        </mxCell>
        <mxCell id="0oao1zLVQg-sBAG5AtIF-137" value="U" style="edgeLabel;align=center;verticalAlign=middle;resizable=0;points=[];rotation=-45;fontSize=19;labelBackgroundColor=none;" parent="1" vertex="1" connectable="0">
          <mxGeometry x="356.0003361789509" y="239.50044967942142" as="geometry" />
        </mxCell>
        <mxCell id="0oao1zLVQg-sBAG5AtIF-138" value="Special_offer" style="ellipse;whiteSpace=wrap;html=1;" parent="1" vertex="1">
          <mxGeometry x="382" y="370.75" width="80" height="30" as="geometry" />
        </mxCell>
        <mxCell id="0oao1zLVQg-sBAG5AtIF-142" style="rounded=0;orthogonalLoop=1;jettySize=auto;html=1;exitX=0;exitY=0.5;exitDx=0;exitDy=0;endArrow=none;startFill=0;entryX=0.5;entryY=1;entryDx=0;entryDy=0;" parent="1" source="0oao1zLVQg-sBAG5AtIF-140" target="0oao1zLVQg-sBAG5AtIF-114" edge="1">
          <mxGeometry relative="1" as="geometry">
            <mxPoint x="470" y="280.75" as="targetPoint" />
          </mxGeometry>
        </mxCell>
        <mxCell id="0oao1zLVQg-sBAG5AtIF-140" value="Special_offer" style="ellipse;whiteSpace=wrap;html=1;" parent="1" vertex="1">
          <mxGeometry x="510" y="290.75" width="80" height="30" as="geometry" />
        </mxCell>
        <mxCell id="0oao1zLVQg-sBAG5AtIF-145" style="edgeStyle=orthogonalEdgeStyle;rounded=0;orthogonalLoop=1;jettySize=auto;html=1;entryX=0;entryY=0.5;entryDx=0;entryDy=0;endArrow=none;startFill=0;exitX=1;exitY=0.5;exitDx=0;exitDy=0;shape=link;" parent="1" source="0oao1zLVQg-sBAG5AtIF-351" target="0oao1zLVQg-sBAG5AtIF-377" edge="1">
          <mxGeometry relative="1" as="geometry">
            <mxPoint x="600" y="110" as="sourcePoint" />
            <mxPoint x="723" y="113" as="targetPoint" />
          </mxGeometry>
        </mxCell>
        <mxCell id="0oao1zLVQg-sBAG5AtIF-148" style="edgeStyle=orthogonalEdgeStyle;rounded=0;orthogonalLoop=1;jettySize=auto;html=1;exitX=0;exitY=0.5;exitDx=0;exitDy=0;entryX=1;entryY=0.5;entryDx=0;entryDy=0;endArrow=none;startFill=0;shape=link;" parent="1" source="0oao1zLVQg-sBAG5AtIF-146" target="0oao1zLVQg-sBAG5AtIF-47" edge="1">
          <mxGeometry relative="1" as="geometry" />
        </mxCell>
        <mxCell id="0oao1zLVQg-sBAG5AtIF-181" style="edgeStyle=orthogonalEdgeStyle;rounded=0;orthogonalLoop=1;jettySize=auto;html=1;exitX=1;exitY=0.5;exitDx=0;exitDy=0;entryX=0;entryY=0.5;entryDx=0;entryDy=0;endArrow=none;startFill=0;shape=link;" parent="1" source="0oao1zLVQg-sBAG5AtIF-341" target="0oao1zLVQg-sBAG5AtIF-154" edge="1">
          <mxGeometry relative="1" as="geometry" />
        </mxCell>
        <mxCell id="0oao1zLVQg-sBAG5AtIF-451" style="edgeStyle=orthogonalEdgeStyle;rounded=0;orthogonalLoop=1;jettySize=auto;html=1;entryX=0.5;entryY=1;entryDx=0;entryDy=0;endArrow=none;startFill=0;exitX=0.5;exitY=0;exitDx=0;exitDy=0;" parent="1" source="0oao1zLVQg-sBAG5AtIF-341" target="0oao1zLVQg-sBAG5AtIF-450" edge="1">
          <mxGeometry relative="1" as="geometry">
            <mxPoint x="-380" y="620" as="sourcePoint" />
          </mxGeometry>
        </mxCell>
        <mxCell id="0oao1zLVQg-sBAG5AtIF-149" value="OFFER" style="rounded=0;whiteSpace=wrap;html=1;" parent="1" vertex="1">
          <mxGeometry x="-371" y="644.75" width="80" height="35" as="geometry" />
        </mxCell>
        <mxCell id="0oao1zLVQg-sBAG5AtIF-155" value="" style="group" parent="1" vertex="1" connectable="0">
          <mxGeometry x="-231" y="612.25" width="95" height="100" as="geometry" />
        </mxCell>
        <mxCell id="0oao1zLVQg-sBAG5AtIF-154" value="" style="rhombus;whiteSpace=wrap;html=1;" parent="0oao1zLVQg-sBAG5AtIF-155" vertex="1">
          <mxGeometry width="95" height="100" as="geometry" />
        </mxCell>
        <mxCell id="0oao1zLVQg-sBAG5AtIF-153" value="HAS_OFFER" style="rhombus;whiteSpace=wrap;html=1;" parent="0oao1zLVQg-sBAG5AtIF-155" vertex="1">
          <mxGeometry x="7.5" y="10" width="80" height="80" as="geometry" />
        </mxCell>
        <mxCell id="0oao1zLVQg-sBAG5AtIF-156" value="PRODUCT" style="rounded=0;whiteSpace=wrap;html=1;" parent="1" vertex="1">
          <mxGeometry x="-20.5" y="682.25" width="80" height="35" as="geometry" />
        </mxCell>
        <mxCell id="0oao1zLVQg-sBAG5AtIF-167" style="edgeStyle=orthogonalEdgeStyle;rounded=0;orthogonalLoop=1;jettySize=auto;html=1;exitX=1;exitY=0.5;exitDx=0;exitDy=0;entryX=0;entryY=0.5;entryDx=0;entryDy=0;endArrow=none;startFill=0;" parent="1" source="0oao1zLVQg-sBAG5AtIF-158" target="0oao1zLVQg-sBAG5AtIF-156" edge="1">
          <mxGeometry relative="1" as="geometry" />
        </mxCell>
        <mxCell id="0oao1zLVQg-sBAG5AtIF-158" value="&lt;b&gt;&lt;u&gt;Product_ID&lt;/u&gt;&lt;/b&gt;" style="ellipse;whiteSpace=wrap;html=1;" parent="1" vertex="1">
          <mxGeometry x="-119.5" y="684.75" width="80" height="30" as="geometry" />
        </mxCell>
        <mxCell id="0oao1zLVQg-sBAG5AtIF-168" style="edgeStyle=orthogonalEdgeStyle;rounded=0;orthogonalLoop=1;jettySize=auto;html=1;exitX=1;exitY=0.5;exitDx=0;exitDy=0;entryX=0;entryY=1;entryDx=0;entryDy=0;endArrow=none;startFill=0;" parent="1" source="0oao1zLVQg-sBAG5AtIF-159" target="0oao1zLVQg-sBAG5AtIF-156" edge="1">
          <mxGeometry relative="1" as="geometry" />
        </mxCell>
        <mxCell id="0oao1zLVQg-sBAG5AtIF-159" value="Name" style="ellipse;whiteSpace=wrap;html=1;" parent="1" vertex="1">
          <mxGeometry x="-100.5" y="727.25" width="80" height="30" as="geometry" />
        </mxCell>
        <mxCell id="0oao1zLVQg-sBAG5AtIF-245" style="edgeStyle=orthogonalEdgeStyle;rounded=0;orthogonalLoop=1;jettySize=auto;html=1;exitX=0;exitY=0.5;exitDx=0;exitDy=0;entryX=1;entryY=0.5;entryDx=0;entryDy=0;endArrow=none;startFill=0;" parent="1" source="0oao1zLVQg-sBAG5AtIF-161" target="0oao1zLVQg-sBAG5AtIF-156" edge="1">
          <mxGeometry relative="1" as="geometry" />
        </mxCell>
        <mxCell id="0oao1zLVQg-sBAG5AtIF-161" value="Rec_price" style="ellipse;whiteSpace=wrap;html=1;" parent="1" vertex="1">
          <mxGeometry x="80" y="684.75" width="80" height="30" as="geometry" />
        </mxCell>
        <mxCell id="0oao1zLVQg-sBAG5AtIF-170" style="edgeStyle=orthogonalEdgeStyle;rounded=0;orthogonalLoop=1;jettySize=auto;html=1;exitX=0;exitY=0.5;exitDx=0;exitDy=0;entryX=1;entryY=1;entryDx=0;entryDy=0;endArrow=none;startFill=0;" parent="1" source="0oao1zLVQg-sBAG5AtIF-162" target="0oao1zLVQg-sBAG5AtIF-156" edge="1">
          <mxGeometry relative="1" as="geometry" />
        </mxCell>
        <mxCell id="0oao1zLVQg-sBAG5AtIF-162" value="Description" style="ellipse;whiteSpace=wrap;html=1;" parent="1" vertex="1">
          <mxGeometry x="59.5" y="727.25" width="80" height="30" as="geometry" />
        </mxCell>
        <mxCell id="0oao1zLVQg-sBAG5AtIF-179" style="edgeStyle=orthogonalEdgeStyle;rounded=0;orthogonalLoop=1;jettySize=auto;html=1;exitX=1;exitY=0.5;exitDx=0;exitDy=0;entryX=0;entryY=0;entryDx=0;entryDy=0;endArrow=none;startFill=0;" parent="1" source="0oao1zLVQg-sBAG5AtIF-154" target="0oao1zLVQg-sBAG5AtIF-156" edge="1">
          <mxGeometry relative="1" as="geometry" />
        </mxCell>
        <mxCell id="0oao1zLVQg-sBAG5AtIF-250" style="edgeStyle=orthogonalEdgeStyle;rounded=0;orthogonalLoop=1;jettySize=auto;html=1;entryX=0.5;entryY=0;entryDx=0;entryDy=0;endArrow=none;startFill=0;shape=link;exitX=0.5;exitY=1;exitDx=0;exitDy=0;" parent="1" source="0oao1zLVQg-sBAG5AtIF-461" target="0oao1zLVQg-sBAG5AtIF-247" edge="1">
          <mxGeometry relative="1" as="geometry">
            <mxPoint x="19.500000000000227" y="498.6300000000001" as="sourcePoint" />
          </mxGeometry>
        </mxCell>
        <mxCell id="0oao1zLVQg-sBAG5AtIF-288" style="edgeStyle=orthogonalEdgeStyle;rounded=0;orthogonalLoop=1;jettySize=auto;html=1;entryX=0;entryY=0.5;entryDx=0;entryDy=0;endArrow=none;startFill=0;exitX=1;exitY=0.5;exitDx=0;exitDy=0;" parent="1" source="0oao1zLVQg-sBAG5AtIF-461" target="0oao1zLVQg-sBAG5AtIF-260" edge="1">
          <mxGeometry relative="1" as="geometry">
            <mxPoint x="80" y="480" as="sourcePoint" />
          </mxGeometry>
        </mxCell>
        <mxCell id="0oao1zLVQg-sBAG5AtIF-193" value="BASKET" style="rounded=0;whiteSpace=wrap;html=1;" parent="1" vertex="1">
          <mxGeometry x="-20" y="459" width="80" height="35" as="geometry" />
        </mxCell>
        <mxCell id="0oao1zLVQg-sBAG5AtIF-213" style="rounded=0;orthogonalLoop=1;jettySize=auto;html=1;exitX=0;exitY=0.5;exitDx=0;exitDy=0;entryX=0.5;entryY=0;entryDx=0;entryDy=0;endArrow=none;startFill=0;" parent="1" source="0oao1zLVQg-sBAG5AtIF-218" target="0oao1zLVQg-sBAG5AtIF-219" edge="1">
          <mxGeometry relative="1" as="geometry" />
        </mxCell>
        <mxCell id="0oao1zLVQg-sBAG5AtIF-214" style="rounded=0;orthogonalLoop=1;jettySize=auto;html=1;exitX=0.5;exitY=1;exitDx=0;exitDy=0;entryX=0.5;entryY=0;entryDx=0;entryDy=0;endArrow=none;startFill=0;" parent="1" source="0oao1zLVQg-sBAG5AtIF-218" target="0oao1zLVQg-sBAG5AtIF-221" edge="1">
          <mxGeometry relative="1" as="geometry" />
        </mxCell>
        <mxCell id="0oao1zLVQg-sBAG5AtIF-215" style="rounded=0;orthogonalLoop=1;jettySize=auto;html=1;exitX=0.5;exitY=1;exitDx=0;exitDy=0;entryX=0.5;entryY=0;entryDx=0;entryDy=0;endArrow=none;startFill=0;" parent="1" source="0oao1zLVQg-sBAG5AtIF-218" target="0oao1zLVQg-sBAG5AtIF-220" edge="1">
          <mxGeometry relative="1" as="geometry" />
        </mxCell>
        <mxCell id="0oao1zLVQg-sBAG5AtIF-216" style="rounded=0;orthogonalLoop=1;jettySize=auto;html=1;exitX=1;exitY=0.5;exitDx=0;exitDy=0;entryX=0.5;entryY=0;entryDx=0;entryDy=0;endArrow=none;startFill=0;" parent="1" source="0oao1zLVQg-sBAG5AtIF-218" target="0oao1zLVQg-sBAG5AtIF-222" edge="1">
          <mxGeometry relative="1" as="geometry" />
        </mxCell>
        <mxCell id="0oao1zLVQg-sBAG5AtIF-217" value="U" style="edgeLabel;align=center;verticalAlign=middle;resizable=0;points=[];rotation=-60;fontSize=19;labelBackgroundColor=none;" parent="0oao1zLVQg-sBAG5AtIF-216" vertex="1" connectable="0">
          <mxGeometry x="0.0036" y="1" relative="1" as="geometry">
            <mxPoint x="-1" y="2" as="offset" />
          </mxGeometry>
        </mxCell>
        <mxCell id="0oao1zLVQg-sBAG5AtIF-227" style="rounded=0;orthogonalLoop=1;jettySize=auto;html=1;exitX=0.5;exitY=0;exitDx=0;exitDy=0;entryX=0.5;entryY=1;entryDx=0;entryDy=0;endArrow=none;startFill=0;shape=link;" parent="1" source="0oao1zLVQg-sBAG5AtIF-218" target="0oao1zLVQg-sBAG5AtIF-156" edge="1">
          <mxGeometry relative="1" as="geometry" />
        </mxCell>
        <mxCell id="0oao1zLVQg-sBAG5AtIF-218" value="&lt;b&gt;d&lt;/b&gt;" style="ellipse;whiteSpace=wrap;html=1;aspect=fixed;" parent="1" vertex="1">
          <mxGeometry x="-5.5" y="772.25" width="50" height="50" as="geometry" />
        </mxCell>
        <mxCell id="0oao1zLVQg-sBAG5AtIF-237" style="edgeStyle=orthogonalEdgeStyle;rounded=0;orthogonalLoop=1;jettySize=auto;html=1;exitX=0.5;exitY=1;exitDx=0;exitDy=0;entryX=0.5;entryY=0;entryDx=0;entryDy=0;endArrow=none;startFill=0;" parent="1" source="0oao1zLVQg-sBAG5AtIF-219" target="0oao1zLVQg-sBAG5AtIF-229" edge="1">
          <mxGeometry relative="1" as="geometry" />
        </mxCell>
        <mxCell id="0oao1zLVQg-sBAG5AtIF-219" value="DESKTOP" style="rounded=0;whiteSpace=wrap;html=1;" parent="1" vertex="1">
          <mxGeometry x="-155.5" y="848.25" width="80" height="35" as="geometry" />
        </mxCell>
        <mxCell id="0oao1zLVQg-sBAG5AtIF-244" style="edgeStyle=orthogonalEdgeStyle;rounded=0;orthogonalLoop=1;jettySize=auto;html=1;exitX=0.5;exitY=1;exitDx=0;exitDy=0;entryX=0.5;entryY=0;entryDx=0;entryDy=0;endArrow=none;startFill=0;" parent="1" source="0oao1zLVQg-sBAG5AtIF-220" target="0oao1zLVQg-sBAG5AtIF-242" edge="1">
          <mxGeometry relative="1" as="geometry" />
        </mxCell>
        <mxCell id="0oao1zLVQg-sBAG5AtIF-220" value="PRINTER" style="rounded=0;whiteSpace=wrap;html=1;" parent="1" vertex="1">
          <mxGeometry x="24.5" y="872.25" width="80" height="35" as="geometry" />
        </mxCell>
        <mxCell id="0oao1zLVQg-sBAG5AtIF-394" style="rounded=0;orthogonalLoop=1;jettySize=auto;html=1;exitX=0.5;exitY=1;exitDx=0;exitDy=0;entryX=0.5;entryY=0;entryDx=0;entryDy=0;endArrow=none;startFill=0;" parent="1" source="0oao1zLVQg-sBAG5AtIF-221" target="0oao1zLVQg-sBAG5AtIF-233" edge="1">
          <mxGeometry relative="1" as="geometry" />
        </mxCell>
        <mxCell id="0oao1zLVQg-sBAG5AtIF-395" style="rounded=0;orthogonalLoop=1;jettySize=auto;html=1;exitX=0.5;exitY=1;exitDx=0;exitDy=0;entryX=0.5;entryY=0;entryDx=0;entryDy=0;endArrow=none;startFill=0;" parent="1" source="0oao1zLVQg-sBAG5AtIF-221" target="0oao1zLVQg-sBAG5AtIF-236" edge="1">
          <mxGeometry relative="1" as="geometry" />
        </mxCell>
        <mxCell id="0oao1zLVQg-sBAG5AtIF-396" style="rounded=0;orthogonalLoop=1;jettySize=auto;html=1;exitX=0.5;exitY=1;exitDx=0;exitDy=0;entryX=0.5;entryY=0;entryDx=0;entryDy=0;endArrow=none;startFill=0;" parent="1" source="0oao1zLVQg-sBAG5AtIF-221" target="0oao1zLVQg-sBAG5AtIF-230" edge="1">
          <mxGeometry relative="1" as="geometry" />
        </mxCell>
        <mxCell id="0oao1zLVQg-sBAG5AtIF-221" value="LAPTOP" style="rounded=0;whiteSpace=wrap;html=1;" parent="1" vertex="1">
          <mxGeometry x="-65.5" y="872.25" width="80" height="35" as="geometry" />
        </mxCell>
        <mxCell id="0oao1zLVQg-sBAG5AtIF-222" value="OTHER" style="rounded=0;whiteSpace=wrap;html=1;" parent="1" vertex="1">
          <mxGeometry x="114.5" y="848.25" width="80" height="35" as="geometry" />
        </mxCell>
        <mxCell id="0oao1zLVQg-sBAG5AtIF-223" value="U" style="edgeLabel;align=center;verticalAlign=middle;resizable=0;points=[];rotation=60;fontSize=19;labelBackgroundColor=none;" parent="1" vertex="1" connectable="0">
          <mxGeometry x="-54.499663821049126" y="820.0004496794214" as="geometry" />
        </mxCell>
        <mxCell id="0oao1zLVQg-sBAG5AtIF-224" value="U" style="edgeLabel;align=center;verticalAlign=middle;resizable=0;points=[];rotation=45;fontSize=19;labelBackgroundColor=none;" parent="1" vertex="1" connectable="0">
          <mxGeometry x="-46.499663821049126" y="845.2504496794214" as="geometry">
            <mxPoint x="32.624355652982146" y="-28.507041555161983" as="offset" />
          </mxGeometry>
        </mxCell>
        <mxCell id="0oao1zLVQg-sBAG5AtIF-225" value="U" style="edgeLabel;align=center;verticalAlign=middle;resizable=0;points=[];rotation=-45;fontSize=19;labelBackgroundColor=none;" parent="1" vertex="1" connectable="0">
          <mxGeometry x="40.500336178950874" y="845.2504496794214" as="geometry" />
        </mxCell>
        <mxCell id="0oao1zLVQg-sBAG5AtIF-229" value="CPU_type" style="ellipse;whiteSpace=wrap;html=1;" parent="1" vertex="1">
          <mxGeometry x="-155.5" y="907.25" width="80" height="30" as="geometry" />
        </mxCell>
        <mxCell id="0oao1zLVQg-sBAG5AtIF-230" value="Battery_time" style="ellipse;whiteSpace=wrap;html=1;" parent="1" vertex="1">
          <mxGeometry x="15" y="992.25" width="80" height="30" as="geometry" />
        </mxCell>
        <mxCell id="0oao1zLVQg-sBAG5AtIF-234" style="rounded=0;orthogonalLoop=1;jettySize=auto;html=1;exitX=0.5;exitY=0;exitDx=0;exitDy=0;entryX=0.5;entryY=1;entryDx=0;entryDy=0;endArrow=none;startFill=0;" parent="1" source="0oao1zLVQg-sBAG5AtIF-231" target="0oao1zLVQg-sBAG5AtIF-220" edge="1">
          <mxGeometry relative="1" as="geometry" />
        </mxCell>
        <mxCell id="0oao1zLVQg-sBAG5AtIF-231" value="Printer_type" style="ellipse;whiteSpace=wrap;html=1;" parent="1" vertex="1">
          <mxGeometry x="114.5" y="932.25" width="80" height="30" as="geometry" />
        </mxCell>
        <mxCell id="0oao1zLVQg-sBAG5AtIF-232" value="Solutions" style="ellipse;whiteSpace=wrap;html=1;" parent="1" vertex="1">
          <mxGeometry x="24.5" y="932.25" width="80" height="30" as="geometry" />
        </mxCell>
        <mxCell id="0oao1zLVQg-sBAG5AtIF-233" value="Weight" style="ellipse;whiteSpace=wrap;html=1;" parent="1" vertex="1">
          <mxGeometry x="-65.5" y="992.25" width="80" height="30" as="geometry" />
        </mxCell>
        <mxCell id="0oao1zLVQg-sBAG5AtIF-236" value="CPU_type" style="ellipse;whiteSpace=wrap;html=1;" parent="1" vertex="1">
          <mxGeometry x="-145.5" y="992.25" width="80" height="30" as="geometry" />
        </mxCell>
        <mxCell id="0oao1zLVQg-sBAG5AtIF-248" style="edgeStyle=orthogonalEdgeStyle;rounded=0;orthogonalLoop=1;jettySize=auto;html=1;endArrow=none;startFill=0;shape=link;exitX=0.5;exitY=1;exitDx=0;exitDy=0;entryX=0.5;entryY=0;entryDx=0;entryDy=0;" parent="1" source="0oao1zLVQg-sBAG5AtIF-350" target="0oao1zLVQg-sBAG5AtIF-461" edge="1">
          <mxGeometry relative="1" as="geometry">
            <mxPoint x="20" y="350" as="sourcePoint" />
            <mxPoint x="20" y="440" as="targetPoint" />
          </mxGeometry>
        </mxCell>
        <mxCell id="0oao1zLVQg-sBAG5AtIF-249" style="rounded=0;orthogonalLoop=1;jettySize=auto;html=1;exitX=0.5;exitY=0;exitDx=0;exitDy=0;entryX=0;entryY=1;entryDx=0;entryDy=0;endArrow=none;startFill=0;" parent="1" source="0oao1zLVQg-sBAG5AtIF-350" target="0oao1zLVQg-sBAG5AtIF-1" edge="1">
          <mxGeometry relative="1" as="geometry" />
        </mxCell>
        <mxCell id="0oao1zLVQg-sBAG5AtIF-246" value="FILLS" style="rhombus;whiteSpace=wrap;html=1;" parent="1" vertex="1">
          <mxGeometry x="-20" y="239.5" width="80" height="80" as="geometry" />
        </mxCell>
        <mxCell id="0oao1zLVQg-sBAG5AtIF-251" style="edgeStyle=orthogonalEdgeStyle;rounded=0;orthogonalLoop=1;jettySize=auto;html=1;exitX=0.5;exitY=1;exitDx=0;exitDy=0;entryX=0.5;entryY=0;entryDx=0;entryDy=0;endArrow=none;startFill=0;" parent="1" source="0oao1zLVQg-sBAG5AtIF-247" target="0oao1zLVQg-sBAG5AtIF-156" edge="1">
          <mxGeometry relative="1" as="geometry" />
        </mxCell>
        <mxCell id="0oao1zLVQg-sBAG5AtIF-247" value="FILLED" style="rhombus;whiteSpace=wrap;html=1;" parent="1" vertex="1">
          <mxGeometry x="-20" y="532.25" width="80" height="80" as="geometry" />
        </mxCell>
        <mxCell id="0oao1zLVQg-sBAG5AtIF-465" style="rounded=0;orthogonalLoop=1;jettySize=auto;html=1;exitX=1;exitY=0.5;exitDx=0;exitDy=0;entryX=0;entryY=0.5;entryDx=0;entryDy=0;endArrow=none;startFill=0;" parent="1" source="0oao1zLVQg-sBAG5AtIF-252" target="0oao1zLVQg-sBAG5AtIF-247" edge="1">
          <mxGeometry relative="1" as="geometry" />
        </mxCell>
        <mxCell id="0oao1zLVQg-sBAG5AtIF-252" value="Final_price" style="ellipse;whiteSpace=wrap;html=1;" parent="1" vertex="1">
          <mxGeometry x="-140" y="535.12" width="80" height="30" as="geometry" />
        </mxCell>
        <mxCell id="0oao1zLVQg-sBAG5AtIF-460" style="rounded=0;orthogonalLoop=1;jettySize=auto;html=1;exitX=1;exitY=0.5;exitDx=0;exitDy=0;endArrow=none;startFill=0;entryX=0;entryY=0.5;entryDx=0;entryDy=0;" parent="1" source="0oao1zLVQg-sBAG5AtIF-255" target="0oao1zLVQg-sBAG5AtIF-461" edge="1">
          <mxGeometry relative="1" as="geometry">
            <mxPoint x="-30" y="460" as="targetPoint" />
          </mxGeometry>
        </mxCell>
        <mxCell id="0oao1zLVQg-sBAG5AtIF-259" value="TRANSACT" style="rounded=0;whiteSpace=wrap;html=1;" parent="1" vertex="1">
          <mxGeometry x="270" y="552.5" width="80" height="35" as="geometry" />
        </mxCell>
        <mxCell id="0oao1zLVQg-sBAG5AtIF-289" style="edgeStyle=orthogonalEdgeStyle;rounded=0;orthogonalLoop=1;jettySize=auto;html=1;exitX=0.5;exitY=1;exitDx=0;exitDy=0;entryX=0.5;entryY=0;entryDx=0;entryDy=0;endArrow=none;startFill=0;shape=link;" parent="1" source="0oao1zLVQg-sBAG5AtIF-260" target="0oao1zLVQg-sBAG5AtIF-259" edge="1">
          <mxGeometry relative="1" as="geometry" />
        </mxCell>
        <mxCell id="0oao1zLVQg-sBAG5AtIF-260" value="CHECKOUT" style="rhombus;whiteSpace=wrap;html=1;" parent="1" vertex="1">
          <mxGeometry x="270" y="437.5" width="80" height="80" as="geometry" />
        </mxCell>
        <mxCell id="0oao1zLVQg-sBAG5AtIF-287" style="edgeStyle=orthogonalEdgeStyle;rounded=0;orthogonalLoop=1;jettySize=auto;html=1;exitX=0.5;exitY=1;exitDx=0;exitDy=0;entryX=1;entryY=0;entryDx=0;entryDy=0;endArrow=none;startFill=0;shape=link;" parent="1" source="0oao1zLVQg-sBAG5AtIF-264" target="0oao1zLVQg-sBAG5AtIF-259" edge="1">
          <mxGeometry relative="1" as="geometry" />
        </mxCell>
        <mxCell id="0oao1zLVQg-sBAG5AtIF-379" style="edgeStyle=orthogonalEdgeStyle;rounded=0;orthogonalLoop=1;jettySize=auto;html=1;exitX=0.5;exitY=0;exitDx=0;exitDy=0;entryX=0;entryY=1;entryDx=0;entryDy=0;endArrow=none;startFill=0;" parent="1" source="0oao1zLVQg-sBAG5AtIF-264" target="0oao1zLVQg-sBAG5AtIF-377" edge="1">
          <mxGeometry relative="1" as="geometry">
            <Array as="points">
              <mxPoint x="622" y="134" />
              <mxPoint x="720" y="134" />
            </Array>
          </mxGeometry>
        </mxCell>
        <mxCell id="0oao1zLVQg-sBAG5AtIF-264" value="SHIPS_TO" style="rhombus;whiteSpace=wrap;html=1;" parent="1" vertex="1">
          <mxGeometry x="582" y="357.5" width="80" height="80" as="geometry" />
        </mxCell>
        <mxCell id="0oao1zLVQg-sBAG5AtIF-397" style="rounded=0;orthogonalLoop=1;jettySize=auto;html=1;exitX=1;exitY=0.5;exitDx=0;exitDy=0;entryX=0;entryY=0.5;entryDx=0;entryDy=0;endArrow=none;startFill=0;" parent="1" source="0oao1zLVQg-sBAG5AtIF-267" target="0oao1zLVQg-sBAG5AtIF-259" edge="1">
          <mxGeometry relative="1" as="geometry" />
        </mxCell>
        <mxCell id="0oao1zLVQg-sBAG5AtIF-267" value="&lt;b&gt;&lt;u&gt;Transact_ID&lt;/u&gt;&lt;/b&gt;" style="ellipse;whiteSpace=wrap;html=1;" parent="1" vertex="1">
          <mxGeometry x="149.5" y="533.5" width="80" height="30" as="geometry" />
        </mxCell>
        <mxCell id="0oao1zLVQg-sBAG5AtIF-407" style="rounded=0;orthogonalLoop=1;jettySize=auto;html=1;exitX=0;exitY=0.5;exitDx=0;exitDy=0;entryX=1;entryY=0.5;entryDx=0;entryDy=0;endArrow=none;startFill=0;" parent="1" source="0oao1zLVQg-sBAG5AtIF-270" target="0oao1zLVQg-sBAG5AtIF-259" edge="1">
          <mxGeometry relative="1" as="geometry" />
        </mxCell>
        <mxCell id="0oao1zLVQg-sBAG5AtIF-270" value="Total_amount" style="ellipse;whiteSpace=wrap;html=1;dashed=1;" parent="1" vertex="1">
          <mxGeometry x="395" y="522.5" width="80" height="30" as="geometry" />
        </mxCell>
        <mxCell id="0oao1zLVQg-sBAG5AtIF-276" style="rounded=0;orthogonalLoop=1;jettySize=auto;html=1;exitX=0.5;exitY=1;exitDx=0;exitDy=0;entryX=1;entryY=0;entryDx=0;entryDy=0;endArrow=none;startFill=0;" parent="1" source="0oao1zLVQg-sBAG5AtIF-75" target="0oao1zLVQg-sBAG5AtIF-47" edge="1">
          <mxGeometry relative="1" as="geometry" />
        </mxCell>
        <mxCell id="0oao1zLVQg-sBAG5AtIF-285" value="" style="edgeStyle=orthogonalEdgeStyle;rounded=0;orthogonalLoop=1;jettySize=auto;html=1;exitX=0.5;exitY=1;exitDx=0;exitDy=0;endArrow=none;startFill=0;" parent="1" source="0oao1zLVQg-sBAG5AtIF-47" target="0oao1zLVQg-sBAG5AtIF-284" edge="1">
          <mxGeometry relative="1" as="geometry">
            <mxPoint x="610" y="910" as="targetPoint" />
            <mxPoint x="20" y="130" as="sourcePoint" />
            <Array as="points">
              <mxPoint x="20" y="210" />
            </Array>
          </mxGeometry>
        </mxCell>
        <mxCell id="0oao1zLVQg-sBAG5AtIF-284" value="PAYS_WITH" style="rhombus;whiteSpace=wrap;html=1;" parent="1" vertex="1">
          <mxGeometry x="-520" y="622.25" width="80" height="80" as="geometry" />
        </mxCell>
        <mxCell id="0oao1zLVQg-sBAG5AtIF-406" style="rounded=0;orthogonalLoop=1;jettySize=auto;html=1;exitX=0;exitY=0.5;exitDx=0;exitDy=0;entryX=1;entryY=0.5;entryDx=0;entryDy=0;endArrow=none;startFill=0;" parent="1" source="0oao1zLVQg-sBAG5AtIF-299" target="0oao1zLVQg-sBAG5AtIF-259" edge="1">
          <mxGeometry relative="1" as="geometry" />
        </mxCell>
        <mxCell id="0oao1zLVQg-sBAG5AtIF-299" value="Credit_card" style="ellipse;whiteSpace=wrap;html=1;" parent="1" vertex="1">
          <mxGeometry x="395" y="587.5" width="80" height="30" as="geometry" />
        </mxCell>
        <mxCell id="0oao1zLVQg-sBAG5AtIF-409" style="rounded=0;orthogonalLoop=1;jettySize=auto;html=1;exitX=0;exitY=0.5;exitDx=0;exitDy=0;entryX=1;entryY=0.5;entryDx=0;entryDy=0;endArrow=none;startFill=0;" parent="1" source="0oao1zLVQg-sBAG5AtIF-300" target="0oao1zLVQg-sBAG5AtIF-264" edge="1">
          <mxGeometry relative="1" as="geometry" />
        </mxCell>
        <mxCell id="0oao1zLVQg-sBAG5AtIF-300" value="Deliver_date" style="ellipse;whiteSpace=wrap;html=1;" parent="1" vertex="1">
          <mxGeometry x="710" y="381.44000000000005" width="80" height="30" as="geometry" />
        </mxCell>
        <mxCell id="0oao1zLVQg-sBAG5AtIF-304" value="(1,1)" style="text;html=1;align=center;verticalAlign=middle;resizable=0;points=[];autosize=1;strokeColor=none;fillColor=none;" parent="1" vertex="1">
          <mxGeometry x="445" y="468" width="50" height="30" as="geometry" />
        </mxCell>
        <mxCell id="0oao1zLVQg-sBAG5AtIF-305" value="(1, M)" style="text;html=1;align=center;verticalAlign=middle;resizable=0;points=[];autosize=1;strokeColor=none;fillColor=none;" parent="1" vertex="1">
          <mxGeometry x="624" y="236.5" width="50" height="30" as="geometry" />
        </mxCell>
        <mxCell id="0oao1zLVQg-sBAG5AtIF-306" value="(0,1)" style="text;html=1;align=center;verticalAlign=middle;resizable=0;points=[];autosize=1;strokeColor=none;fillColor=none;" parent="1" vertex="1">
          <mxGeometry x="-96.5" y="1040" width="50" height="30" as="geometry" />
        </mxCell>
        <mxCell id="0oao1zLVQg-sBAG5AtIF-308" value="(0,M)" style="text;html=1;align=center;verticalAlign=middle;resizable=0;points=[];autosize=1;strokeColor=none;fillColor=none;" parent="1" vertex="1">
          <mxGeometry x="120" y="187.75" width="50" height="30" as="geometry" />
        </mxCell>
        <mxCell id="0oao1zLVQg-sBAG5AtIF-311" value="(0,1)" style="text;html=1;align=center;verticalAlign=middle;resizable=0;points=[];autosize=1;strokeColor=none;fillColor=none;" parent="1" vertex="1">
          <mxGeometry x="125" y="448" width="50" height="30" as="geometry" />
        </mxCell>
        <mxCell id="0oao1zLVQg-sBAG5AtIF-312" value="(0,M)" style="text;html=1;align=center;verticalAlign=middle;resizable=0;points=[];autosize=1;strokeColor=none;fillColor=none;" parent="1" vertex="1">
          <mxGeometry x="195" y="108" width="50" height="30" as="geometry" />
        </mxCell>
        <mxCell id="0oao1zLVQg-sBAG5AtIF-314" value="(0,M)" style="text;html=1;align=center;verticalAlign=middle;resizable=0;points=[];autosize=1;strokeColor=none;fillColor=none;" parent="1" vertex="1">
          <mxGeometry x="17.5" y="628" width="50" height="30" as="geometry" />
        </mxCell>
        <mxCell id="0oao1zLVQg-sBAG5AtIF-315" value="(1,M)" style="text;html=1;align=center;verticalAlign=middle;resizable=0;points=[];autosize=1;strokeColor=none;fillColor=none;" parent="1" vertex="1">
          <mxGeometry x="19.5" y="507" width="50" height="30" as="geometry" />
        </mxCell>
        <mxCell id="0oao1zLVQg-sBAG5AtIF-316" value="(1,1)" style="text;html=1;align=center;verticalAlign=middle;resizable=0;points=[];autosize=1;strokeColor=none;fillColor=none;" parent="1" vertex="1">
          <mxGeometry x="17.5" y="370.75" width="50" height="30" as="geometry" />
        </mxCell>
        <mxCell id="0oao1zLVQg-sBAG5AtIF-318" value="(0,M)" style="text;html=1;align=center;verticalAlign=middle;resizable=0;points=[];autosize=1;strokeColor=none;fillColor=none;" parent="1" vertex="1">
          <mxGeometry x="-305" y="208" width="50" height="30" as="geometry" />
        </mxCell>
        <mxCell id="0oao1zLVQg-sBAG5AtIF-319" value="(1,1)" style="text;html=1;align=center;verticalAlign=middle;resizable=0;points=[];autosize=1;strokeColor=none;fillColor=none;" parent="1" vertex="1">
          <mxGeometry x="65" y="108" width="50" height="30" as="geometry" />
        </mxCell>
        <mxCell id="0oao1zLVQg-sBAG5AtIF-320" value="(0,1)" style="text;html=1;align=center;verticalAlign=middle;resizable=0;points=[];autosize=1;strokeColor=none;fillColor=none;" parent="1" vertex="1">
          <mxGeometry x="-125" y="638" width="50" height="30" as="geometry" />
        </mxCell>
        <mxCell id="0oao1zLVQg-sBAG5AtIF-321" value="(1,1)" style="text;html=1;align=center;verticalAlign=middle;resizable=0;points=[];autosize=1;strokeColor=none;fillColor=none;" parent="1" vertex="1">
          <mxGeometry x="-281" y="638" width="50" height="30" as="geometry" />
        </mxCell>
        <mxCell id="0oao1zLVQg-sBAG5AtIF-322" value="(1,1)" style="text;html=1;align=center;verticalAlign=middle;resizable=0;points=[];autosize=1;strokeColor=none;fillColor=none;" parent="1" vertex="1">
          <mxGeometry x="630" y="88" width="50" height="30" as="geometry" />
        </mxCell>
        <mxCell id="0oao1zLVQg-sBAG5AtIF-323" value="(1,M)" style="text;html=1;align=center;verticalAlign=middle;resizable=0;points=[];autosize=1;strokeColor=none;fillColor=none;" parent="1" vertex="1">
          <mxGeometry x="425" y="88" width="50" height="30" as="geometry" />
        </mxCell>
        <mxCell id="0oao1zLVQg-sBAG5AtIF-324" value="1" style="text;html=1;align=center;verticalAlign=middle;resizable=0;points=[];autosize=1;strokeColor=none;fillColor=none;" parent="1" vertex="1">
          <mxGeometry x="275" y="517.5" width="30" height="30" as="geometry" />
        </mxCell>
        <mxCell id="0oao1zLVQg-sBAG5AtIF-325" value="1" style="text;html=1;align=center;verticalAlign=middle;resizable=0;points=[];autosize=1;strokeColor=none;fillColor=none;" parent="1" vertex="1">
          <mxGeometry x="104.5" y="448" width="30" height="30" as="geometry" />
        </mxCell>
        <mxCell id="0oao1zLVQg-sBAG5AtIF-327" value="M" style="text;html=1;align=center;verticalAlign=middle;resizable=0;points=[];autosize=1;strokeColor=none;fillColor=none;" parent="1" vertex="1">
          <mxGeometry x="423" y="468" width="30" height="30" as="geometry" />
        </mxCell>
        <mxCell id="0oao1zLVQg-sBAG5AtIF-328" value="1" style="text;html=1;align=center;verticalAlign=middle;resizable=0;points=[];autosize=1;strokeColor=none;fillColor=none;" parent="1" vertex="1">
          <mxGeometry x="590" y="236.5" width="30" height="30" as="geometry" />
        </mxCell>
        <mxCell id="0oao1zLVQg-sBAG5AtIF-329" value="M" style="text;html=1;align=center;verticalAlign=middle;resizable=0;points=[];autosize=1;strokeColor=none;fillColor=none;" parent="1" vertex="1">
          <mxGeometry x="-119.5" y="1040" width="30" height="30" as="geometry" />
        </mxCell>
        <mxCell id="0oao1zLVQg-sBAG5AtIF-330" value="1" style="text;html=1;align=center;verticalAlign=middle;resizable=0;points=[];autosize=1;strokeColor=none;fillColor=none;" parent="1" vertex="1">
          <mxGeometry x="-335" y="208" width="30" height="30" as="geometry" />
        </mxCell>
        <mxCell id="0oao1zLVQg-sBAG5AtIF-331" value="M" style="text;html=1;align=center;verticalAlign=middle;resizable=0;points=[];autosize=1;strokeColor=none;fillColor=none;" parent="1" vertex="1">
          <mxGeometry x="74.5" y="88" width="30" height="30" as="geometry" />
        </mxCell>
        <mxCell id="0oao1zLVQg-sBAG5AtIF-332" value="1" style="text;html=1;align=center;verticalAlign=middle;resizable=0;points=[];autosize=1;strokeColor=none;fillColor=none;" parent="1" vertex="1">
          <mxGeometry x="205" y="88" width="30" height="30" as="geometry" />
        </mxCell>
        <mxCell id="0oao1zLVQg-sBAG5AtIF-333" value="M" style="text;html=1;align=center;verticalAlign=middle;resizable=0;points=[];autosize=1;strokeColor=none;fillColor=none;" parent="1" vertex="1">
          <mxGeometry x="-15.5" y="370.75" width="30" height="30" as="geometry" />
        </mxCell>
        <mxCell id="0oao1zLVQg-sBAG5AtIF-334" value="M" style="text;html=1;align=center;verticalAlign=middle;resizable=0;points=[];autosize=1;strokeColor=none;fillColor=none;" parent="1" vertex="1">
          <mxGeometry x="-15" y="508" width="30" height="30" as="geometry" />
        </mxCell>
        <mxCell id="0oao1zLVQg-sBAG5AtIF-335" value="1" style="text;html=1;align=center;verticalAlign=middle;resizable=0;points=[];autosize=1;strokeColor=none;fillColor=none;" parent="1" vertex="1">
          <mxGeometry x="435" y="108" width="30" height="30" as="geometry" />
        </mxCell>
        <mxCell id="0oao1zLVQg-sBAG5AtIF-336" value="M" style="text;html=1;align=center;verticalAlign=middle;resizable=0;points=[];autosize=1;strokeColor=none;fillColor=none;" parent="1" vertex="1">
          <mxGeometry x="615" y="88" width="30" height="30" as="geometry" />
        </mxCell>
        <mxCell id="0oao1zLVQg-sBAG5AtIF-337" value="M" style="text;html=1;align=center;verticalAlign=middle;resizable=0;points=[];autosize=1;strokeColor=none;fillColor=none;" parent="1" vertex="1">
          <mxGeometry x="-12.5" y="628" width="30" height="30" as="geometry" />
        </mxCell>
        <mxCell id="0oao1zLVQg-sBAG5AtIF-338" value="1" style="text;html=1;align=center;verticalAlign=middle;resizable=0;points=[];autosize=1;strokeColor=none;fillColor=none;" parent="1" vertex="1">
          <mxGeometry x="-115" y="658" width="30" height="30" as="geometry" />
        </mxCell>
        <mxCell id="0oao1zLVQg-sBAG5AtIF-339" value="1" style="text;html=1;align=center;verticalAlign=middle;resizable=0;points=[];autosize=1;strokeColor=none;fillColor=none;" parent="1" vertex="1">
          <mxGeometry x="-271" y="658" width="30" height="30" as="geometry" />
        </mxCell>
        <mxCell id="0oao1zLVQg-sBAG5AtIF-340" value="1" style="text;html=1;align=center;verticalAlign=middle;resizable=0;points=[];autosize=1;strokeColor=none;fillColor=none;" parent="1" vertex="1">
          <mxGeometry x="105" y="187.75" width="30" height="30" as="geometry" />
        </mxCell>
        <mxCell id="0oao1zLVQg-sBAG5AtIF-408" style="rounded=0;orthogonalLoop=1;jettySize=auto;html=1;exitX=0;exitY=0.5;exitDx=0;exitDy=0;entryX=1;entryY=0.5;entryDx=0;entryDy=0;endArrow=none;startFill=0;" parent="1" source="0oao1zLVQg-sBAG5AtIF-362" target="0oao1zLVQg-sBAG5AtIF-264" edge="1">
          <mxGeometry relative="1" as="geometry" />
        </mxCell>
        <mxCell id="0oao1zLVQg-sBAG5AtIF-362" value="Ship_date" style="ellipse;whiteSpace=wrap;html=1;" parent="1" vertex="1">
          <mxGeometry x="710" y="417.99999999999994" width="80" height="30" as="geometry" />
        </mxCell>
        <mxCell id="0oao1zLVQg-sBAG5AtIF-411" style="rounded=0;orthogonalLoop=1;jettySize=auto;html=1;exitX=0;exitY=0.5;exitDx=0;exitDy=0;entryX=1;entryY=0.5;entryDx=0;entryDy=0;endArrow=none;startFill=0;" parent="1" source="0oao1zLVQg-sBAG5AtIF-365" target="0oao1zLVQg-sBAG5AtIF-264" edge="1">
          <mxGeometry relative="1" as="geometry" />
        </mxCell>
        <mxCell id="0oao1zLVQg-sBAG5AtIF-365" value="Delivered_tag" style="ellipse;whiteSpace=wrap;html=1;dashed=1;" parent="1" vertex="1">
          <mxGeometry x="710" y="340.74999999999994" width="80" height="30" as="geometry" />
        </mxCell>
        <mxCell id="0oao1zLVQg-sBAG5AtIF-380" value="" style="group" parent="1" vertex="1" connectable="0">
          <mxGeometry x="720" y="91.38" width="89" height="42.25" as="geometry" />
        </mxCell>
        <mxCell id="0oao1zLVQg-sBAG5AtIF-377" value="" style="rounded=0;whiteSpace=wrap;html=1;" parent="0oao1zLVQg-sBAG5AtIF-380" vertex="1">
          <mxGeometry width="89" height="42.25" as="geometry" />
        </mxCell>
        <mxCell id="0oao1zLVQg-sBAG5AtIF-378" value="SHIP_ADDR" style="rounded=0;whiteSpace=wrap;html=1;" parent="0oao1zLVQg-sBAG5AtIF-380" vertex="1">
          <mxGeometry x="5" y="3.6200000000000045" width="80" height="35" as="geometry" />
        </mxCell>
        <mxCell id="0oao1zLVQg-sBAG5AtIF-351" value="" style="rhombus;whiteSpace=wrap;html=1;" parent="1" vertex="1">
          <mxGeometry x="492.5" y="62.5" width="95" height="100" as="geometry" />
        </mxCell>
        <mxCell id="0oao1zLVQg-sBAG5AtIF-29" value="" style="rounded=0;orthogonalLoop=1;jettySize=auto;html=1;endArrow=none;startFill=0;" parent="1" source="0oao1zLVQg-sBAG5AtIF-1" target="0oao1zLVQg-sBAG5AtIF-2" edge="1">
          <mxGeometry relative="1" as="geometry" />
        </mxCell>
        <mxCell id="0oao1zLVQg-sBAG5AtIF-30" value="" style="rounded=0;orthogonalLoop=1;jettySize=auto;html=1;entryX=1;entryY=0.5;entryDx=0;entryDy=0;endArrow=none;startFill=0;exitX=1;exitY=0;exitDx=0;exitDy=0;" parent="1" source="0oao1zLVQg-sBAG5AtIF-1" target="0oao1zLVQg-sBAG5AtIF-74" edge="1">
          <mxGeometry relative="1" as="geometry">
            <mxPoint x="260" y="150" as="targetPoint" />
          </mxGeometry>
        </mxCell>
        <mxCell id="0oao1zLVQg-sBAG5AtIF-33" value="" style="rounded=0;orthogonalLoop=1;jettySize=auto;html=1;entryX=0.5;entryY=1;entryDx=0;entryDy=0;endArrow=none;startFill=0;edgeStyle=orthogonalEdgeStyle;" parent="1" source="0oao1zLVQg-sBAG5AtIF-1" target="0oao1zLVQg-sBAG5AtIF-6" edge="1">
          <mxGeometry relative="1" as="geometry">
            <mxPoint x="335" y="70" as="targetPoint" />
          </mxGeometry>
        </mxCell>
        <mxCell id="0oao1zLVQg-sBAG5AtIF-35" value="" style="rounded=0;orthogonalLoop=1;jettySize=auto;html=1;endArrow=none;startFill=0;exitX=0.5;exitY=0;exitDx=0;exitDy=0;entryX=0.5;entryY=1;entryDx=0;entryDy=0;edgeStyle=orthogonalEdgeStyle;" parent="1" source="0oao1zLVQg-sBAG5AtIF-1" target="0oao1zLVQg-sBAG5AtIF-11" edge="1">
          <mxGeometry relative="1" as="geometry">
            <mxPoint x="310" y="180" as="targetPoint" />
          </mxGeometry>
        </mxCell>
        <mxCell id="0oao1zLVQg-sBAG5AtIF-40" value="" style="rounded=0;orthogonalLoop=1;jettySize=auto;html=1;endArrow=none;startFill=0;exitX=0;exitY=0;exitDx=0;exitDy=0;" parent="1" source="0oao1zLVQg-sBAG5AtIF-1" target="0oao1zLVQg-sBAG5AtIF-39" edge="1">
          <mxGeometry relative="1" as="geometry" />
        </mxCell>
        <mxCell id="0oao1zLVQg-sBAG5AtIF-147" style="edgeStyle=orthogonalEdgeStyle;rounded=0;orthogonalLoop=1;jettySize=auto;html=1;exitX=0;exitY=0.5;exitDx=0;exitDy=0;entryX=1;entryY=0.5;entryDx=0;entryDy=0;endArrow=none;startFill=0;" parent="1" source="0oao1zLVQg-sBAG5AtIF-1" target="0oao1zLVQg-sBAG5AtIF-146" edge="1">
          <mxGeometry relative="1" as="geometry" />
        </mxCell>
        <mxCell id="0oao1zLVQg-sBAG5AtIF-1" value="CUSTOMER" style="rounded=0;whiteSpace=wrap;html=1;" parent="1" vertex="1">
          <mxGeometry x="295" y="95" width="80" height="35" as="geometry" />
        </mxCell>
        <mxCell id="0oao1zLVQg-sBAG5AtIF-2" value="&lt;u&gt;&lt;b&gt;Customer_ID&lt;/b&gt;&lt;/u&gt;" style="ellipse;whiteSpace=wrap;html=1;" parent="1" vertex="1">
          <mxGeometry x="295" y="20" width="80" height="30" as="geometry" />
        </mxCell>
        <mxCell id="0oao1zLVQg-sBAG5AtIF-31" value="" style="group" parent="1" vertex="1" connectable="0">
          <mxGeometry x="335" y="-75" width="275" height="85" as="geometry" />
        </mxCell>
        <mxCell id="0oao1zLVQg-sBAG5AtIF-12" value="Area_code" style="ellipse;whiteSpace=wrap;html=1;" parent="0oao1zLVQg-sBAG5AtIF-31" vertex="1">
          <mxGeometry x="25" y="-5" width="80" height="30" as="geometry" />
        </mxCell>
        <mxCell id="0oao1zLVQg-sBAG5AtIF-14" value="Line_number" style="ellipse;whiteSpace=wrap;html=1;" parent="0oao1zLVQg-sBAG5AtIF-31" vertex="1">
          <mxGeometry x="185" y="-5" width="80" height="30" as="geometry" />
        </mxCell>
        <mxCell id="0oao1zLVQg-sBAG5AtIF-13" value="Prefix" style="ellipse;whiteSpace=wrap;html=1;" parent="0oao1zLVQg-sBAG5AtIF-31" vertex="1">
          <mxGeometry x="105" y="-5" width="80" height="30" as="geometry" />
        </mxCell>
        <mxCell id="0oao1zLVQg-sBAG5AtIF-32" value="" style="group" parent="1" vertex="1" connectable="0">
          <mxGeometry x="180" y="-80" width="170" height="100" as="geometry" />
        </mxCell>
        <mxCell id="0oao1zLVQg-sBAG5AtIF-3" value="First_name" style="ellipse;whiteSpace=wrap;html=1;" parent="0oao1zLVQg-sBAG5AtIF-32" vertex="1">
          <mxGeometry x="4" width="80" height="30" as="geometry" />
        </mxCell>
        <mxCell id="0oao1zLVQg-sBAG5AtIF-5" value="Surname" style="ellipse;whiteSpace=wrap;html=1;" parent="0oao1zLVQg-sBAG5AtIF-32" vertex="1">
          <mxGeometry x="84" width="80" height="30" as="geometry" />
        </mxCell>
        <mxCell id="0oao1zLVQg-sBAG5AtIF-8" value="" style="group" parent="0oao1zLVQg-sBAG5AtIF-32" vertex="1" connectable="0">
          <mxGeometry x="40" y="60" width="90" height="40" as="geometry" />
        </mxCell>
        <mxCell id="0oao1zLVQg-sBAG5AtIF-6" value="Name" style="ellipse;whiteSpace=wrap;html=1;perimeterSpacing=0;movable=1;resizable=1;rotatable=1;deletable=1;editable=1;locked=0;connectable=1;" parent="0oao1zLVQg-sBAG5AtIF-8" vertex="1">
          <mxGeometry x="5" y="5" width="80" height="30" as="geometry" />
        </mxCell>
        <mxCell id="0oao1zLVQg-sBAG5AtIF-27" value="" style="rounded=0;orthogonalLoop=1;jettySize=auto;html=1;endArrow=none;startFill=0;exitX=0.5;exitY=0;exitDx=0;exitDy=0;entryX=0.5;entryY=1;entryDx=0;entryDy=0;" parent="0oao1zLVQg-sBAG5AtIF-32" source="0oao1zLVQg-sBAG5AtIF-6" target="0oao1zLVQg-sBAG5AtIF-5" edge="1">
          <mxGeometry relative="1" as="geometry" />
        </mxCell>
        <mxCell id="0oao1zLVQg-sBAG5AtIF-28" value="" style="rounded=0;orthogonalLoop=1;jettySize=auto;html=1;endArrow=none;startFill=0;exitX=0.5;exitY=0;exitDx=0;exitDy=0;entryX=0.5;entryY=1;entryDx=0;entryDy=0;" parent="0oao1zLVQg-sBAG5AtIF-32" source="0oao1zLVQg-sBAG5AtIF-6" target="0oao1zLVQg-sBAG5AtIF-3" edge="1">
          <mxGeometry relative="1" as="geometry" />
        </mxCell>
        <mxCell id="0oao1zLVQg-sBAG5AtIF-39" value="Email_address" style="ellipse;whiteSpace=wrap;html=1;" parent="1" vertex="1">
          <mxGeometry x="200" y="60" width="80" height="30" as="geometry" />
        </mxCell>
        <mxCell id="0oao1zLVQg-sBAG5AtIF-74" value="Home_address" style="ellipse;whiteSpace=wrap;html=1;" parent="1" vertex="1">
          <mxGeometry x="385" y="60" width="80" height="30" as="geometry" />
        </mxCell>
        <mxCell id="0oao1zLVQg-sBAG5AtIF-9" value="" style="group" parent="1" vertex="1" connectable="0">
          <mxGeometry x="435" y="-20" width="90" height="40" as="geometry" />
        </mxCell>
        <mxCell id="0oao1zLVQg-sBAG5AtIF-11" value="Phone#" style="ellipse;whiteSpace=wrap;html=1;perimeterSpacing=0;movable=1;resizable=1;rotatable=1;deletable=1;editable=1;locked=0;connectable=1;" parent="0oao1zLVQg-sBAG5AtIF-9" vertex="1">
          <mxGeometry x="5" y="5" width="80" height="30" as="geometry" />
        </mxCell>
        <mxCell id="0oao1zLVQg-sBAG5AtIF-21" value="" style="rounded=0;orthogonalLoop=1;jettySize=auto;html=1;endArrow=none;startFill=0;exitX=0.5;exitY=0;exitDx=0;exitDy=0;entryX=0.5;entryY=1;entryDx=0;entryDy=0;" parent="1" source="0oao1zLVQg-sBAG5AtIF-11" target="0oao1zLVQg-sBAG5AtIF-12" edge="1">
          <mxGeometry relative="1" as="geometry" />
        </mxCell>
        <mxCell id="0oao1zLVQg-sBAG5AtIF-22" value="" style="rounded=0;orthogonalLoop=1;jettySize=auto;html=1;endArrow=none;startFill=0;exitX=0.5;exitY=0;exitDx=0;exitDy=0;entryX=0.5;entryY=1;entryDx=0;entryDy=0;" parent="1" source="0oao1zLVQg-sBAG5AtIF-11" target="0oao1zLVQg-sBAG5AtIF-14" edge="1">
          <mxGeometry relative="1" as="geometry" />
        </mxCell>
        <mxCell id="0oao1zLVQg-sBAG5AtIF-106" style="rounded=0;orthogonalLoop=1;jettySize=auto;html=1;exitX=0.5;exitY=0;exitDx=0;exitDy=0;entryX=0.5;entryY=1;entryDx=0;entryDy=0;endArrow=none;startFill=0;" parent="1" source="0oao1zLVQg-sBAG5AtIF-11" target="0oao1zLVQg-sBAG5AtIF-13" edge="1">
          <mxGeometry relative="1" as="geometry" />
        </mxCell>
        <mxCell id="0oao1zLVQg-sBAG5AtIF-144" style="edgeStyle=orthogonalEdgeStyle;rounded=0;orthogonalLoop=1;jettySize=auto;html=1;entryX=1;entryY=0.5;entryDx=0;entryDy=0;endArrow=none;startFill=0;shape=link;exitX=0;exitY=0.5;exitDx=0;exitDy=0;" parent="1" source="0oao1zLVQg-sBAG5AtIF-351" target="0oao1zLVQg-sBAG5AtIF-1" edge="1">
          <mxGeometry relative="1" as="geometry">
            <mxPoint x="490" y="130" as="sourcePoint" />
          </mxGeometry>
        </mxCell>
        <mxCell id="0oao1zLVQg-sBAG5AtIF-143" value="PICKUP_AT" style="rhombus;whiteSpace=wrap;html=1;" parent="1" vertex="1">
          <mxGeometry x="500" y="72.5" width="80" height="80" as="geometry" />
        </mxCell>
        <mxCell id="0oao1zLVQg-sBAG5AtIF-146" value="OWNS" style="rhombus;whiteSpace=wrap;html=1;" parent="1" vertex="1">
          <mxGeometry x="110" y="72" width="80" height="80" as="geometry" />
        </mxCell>
        <mxCell id="0oao1zLVQg-sBAG5AtIF-430" value="" style="endArrow=none;dashed=1;html=1;dashPattern=1 3;strokeWidth=2;rounded=0;" parent="1" edge="1">
          <mxGeometry width="50" height="50" relative="1" as="geometry">
            <mxPoint x="-360.91" y="734.25" as="sourcePoint" />
            <mxPoint x="-297" y="734" as="targetPoint" />
          </mxGeometry>
        </mxCell>
        <mxCell id="0oao1zLVQg-sBAG5AtIF-435" value="" style="group" parent="1" vertex="1" connectable="0">
          <mxGeometry x="680" y="-40" width="170" height="100" as="geometry" />
        </mxCell>
        <mxCell id="0oao1zLVQg-sBAG5AtIF-438" value="" style="group" parent="0oao1zLVQg-sBAG5AtIF-435" vertex="1" connectable="0">
          <mxGeometry x="40" y="60" width="90" height="40" as="geometry" />
        </mxCell>
        <mxCell id="0oao1zLVQg-sBAG5AtIF-439" value="&lt;b&gt;Addr_name&lt;/b&gt;" style="ellipse;whiteSpace=wrap;html=1;perimeterSpacing=0;movable=1;resizable=1;rotatable=1;deletable=1;editable=1;locked=0;connectable=1;" parent="0oao1zLVQg-sBAG5AtIF-438" vertex="1">
          <mxGeometry x="5" y="5" width="80" height="30" as="geometry" />
        </mxCell>
        <mxCell id="0oao1zLVQg-sBAG5AtIF-442" value="" style="endArrow=none;dashed=1;html=1;dashPattern=1 3;strokeWidth=2;rounded=0;" parent="0oao1zLVQg-sBAG5AtIF-438" edge="1">
          <mxGeometry width="50" height="50" relative="1" as="geometry">
            <mxPoint x="15.089999999999918" y="28.25" as="sourcePoint" />
            <mxPoint x="79" y="28" as="targetPoint" />
          </mxGeometry>
        </mxCell>
        <mxCell id="0oao1zLVQg-sBAG5AtIF-443" style="edgeStyle=orthogonalEdgeStyle;rounded=0;orthogonalLoop=1;jettySize=auto;html=1;exitX=0.5;exitY=0;exitDx=0;exitDy=0;entryX=0.5;entryY=1;entryDx=0;entryDy=0;endArrow=none;startFill=0;" parent="1" source="0oao1zLVQg-sBAG5AtIF-377" target="0oao1zLVQg-sBAG5AtIF-439" edge="1">
          <mxGeometry relative="1" as="geometry" />
        </mxCell>
        <mxCell id="0oao1zLVQg-sBAG5AtIF-450" value="Member_tier" style="ellipse;whiteSpace=wrap;html=1;" parent="1" vertex="1">
          <mxGeometry x="-371" y="585" width="80" height="30" as="geometry" />
        </mxCell>
        <mxCell id="0oao1zLVQg-sBAG5AtIF-464" style="rounded=0;orthogonalLoop=1;jettySize=auto;html=1;exitX=1;exitY=0.5;exitDx=0;exitDy=0;entryX=0;entryY=0.5;entryDx=0;entryDy=0;endArrow=none;startFill=0;" parent="1" source="0oao1zLVQg-sBAG5AtIF-454" target="0oao1zLVQg-sBAG5AtIF-247" edge="1">
          <mxGeometry relative="1" as="geometry" />
        </mxCell>
        <mxCell id="0oao1zLVQg-sBAG5AtIF-454" value="Quantity" style="ellipse;whiteSpace=wrap;html=1;dashed=1;" parent="1" vertex="1">
          <mxGeometry x="-140" y="579.37" width="80" height="30" as="geometry" />
        </mxCell>
        <mxCell id="0oao1zLVQg-sBAG5AtIF-469" value="Date_closed" style="ellipse;whiteSpace=wrap;html=1;" parent="1" vertex="1">
          <mxGeometry x="-140" y="461.87" width="80" height="30" as="geometry" />
        </mxCell>
        <mxCell id="0oao1zLVQg-sBAG5AtIF-473" value="" style="group" parent="1" vertex="1" connectable="0">
          <mxGeometry x="-140" y="498" width="80" height="30" as="geometry" />
        </mxCell>
        <mxCell id="0oao1zLVQg-sBAG5AtIF-255" value="&lt;b&gt;Date_created&lt;/b&gt;" style="ellipse;whiteSpace=wrap;html=1;fontStyle=0" parent="0oao1zLVQg-sBAG5AtIF-473" vertex="1">
          <mxGeometry width="80" height="30" as="geometry" />
        </mxCell>
        <mxCell id="0oao1zLVQg-sBAG5AtIF-472" value="" style="endArrow=none;dashed=1;html=1;dashPattern=1 3;strokeWidth=2;rounded=0;" parent="0oao1zLVQg-sBAG5AtIF-473" edge="1">
          <mxGeometry width="50" height="50" relative="1" as="geometry">
            <mxPoint x="10.499999999999972" y="22.539999999999964" as="sourcePoint" />
            <mxPoint x="74.41" y="22.289999999999964" as="targetPoint" />
          </mxGeometry>
        </mxCell>
        <mxCell id="0oao1zLVQg-sBAG5AtIF-474" value="Total_amount" style="ellipse;whiteSpace=wrap;html=1;" parent="1" vertex="1">
          <mxGeometry x="-140" y="425.75" width="80" height="30" as="geometry" />
        </mxCell>
        <mxCell id="0oao1zLVQg-sBAG5AtIF-477" style="rounded=0;orthogonalLoop=1;jettySize=auto;html=1;exitX=1;exitY=0.5;exitDx=0;exitDy=0;entryX=0;entryY=0.5;entryDx=0;entryDy=0;endArrow=none;startFill=0;" parent="1" source="0oao1zLVQg-sBAG5AtIF-476" target="0oao1zLVQg-sBAG5AtIF-259" edge="1">
          <mxGeometry relative="1" as="geometry" />
        </mxCell>
        <mxCell id="0oao1zLVQg-sBAG5AtIF-476" value="Transact_date" style="ellipse;whiteSpace=wrap;html=1;" parent="1" vertex="1">
          <mxGeometry x="149.5" y="576.5" width="80" height="30" as="geometry" />
        </mxCell>
        <mxCell id="0oao1zLVQg-sBAG5AtIF-480" style="edgeStyle=orthogonalEdgeStyle;rounded=0;orthogonalLoop=1;jettySize=auto;html=1;exitX=0;exitY=0.5;exitDx=0;exitDy=0;entryX=1;entryY=0.5;entryDx=0;entryDy=0;endArrow=none;startFill=0;" parent="1" source="0oao1zLVQg-sBAG5AtIF-478" target="0oao1zLVQg-sBAG5AtIF-259" edge="1">
          <mxGeometry relative="1" as="geometry" />
        </mxCell>
        <mxCell id="0oao1zLVQg-sBAG5AtIF-478" value="#_items" style="ellipse;whiteSpace=wrap;html=1;dashed=1;" parent="1" vertex="1">
          <mxGeometry x="395" y="555" width="80" height="30" as="geometry" />
        </mxCell>
      </root>
    </mxGraphModel>
  </diagram>
</mxfile>
